HIERARCHY
ROOT CC_Base_BoneRoot
{
	OFFSET 0.000000 0.000000 0.000000
	CHANNELS 6 Xposition Yposition Zposition Xrotation Yrotation Zrotation
	JOINT CC_Base_Hip
	{
		OFFSET 0.000000 0.000000 105.214241
		CHANNELS 3 Xrotation Yrotation Zrotation
		JOINT CC_Base_Pelvis
		{
			OFFSET -0.000000 -0.000001 -0.000069
			CHANNELS 3 Xrotation Yrotation Zrotation
			JOINT CC_Base_L_Thigh
			{
				OFFSET 9.679232 0.301105 -2.207489
				CHANNELS 3 Xrotation Yrotation Zrotation
				JOINT CC_Base_L_Calf
				{
					OFFSET -0.939750 -0.172164 -40.658329
					CHANNELS 3 Xrotation Yrotation Zrotation
					JOINT CC_Base_L_Foot
					{
						OFFSET -0.952431 0.632389 -42.310875
						CHANNELS 3 Xrotation Yrotation Zrotation
						JOINT CC_Base_L_ToeBaseShareBone
						{
							OFFSET 1.566516 -13.132577 -2.423887
							CHANNELS 3 Xrotation Yrotation Zrotation
							End Site
							{
								OFFSET 0.820910 -13.277843 1.311294
							}
						}
						JOINT CC_Base_L_ToeBase
						{
							OFFSET 1.556535 -12.970218 -2.440896
							CHANNELS 3 Xrotation Yrotation Zrotation
							JOINT CC_Base_L_PinkyToe1
							{
								OFFSET 3.000326 -0.095164 -0.265234
								CHANNELS 3 Xrotation Yrotation Zrotation
								End Site
								{
									OFFSET 0.071889 -2.740657 -1.237427
								}
							}
							JOINT CC_Base_L_RingToe1
							{
								OFFSET 1.613520 -1.258591 0.234524
								CHANNELS 3 Xrotation Yrotation Zrotation
								End Site
								{
									OFFSET 0.209102 -2.660546 -1.387572
								}
							}
							JOINT CC_Base_L_MidToe1
							{
								OFFSET 0.190605 -2.362959 0.359053
								CHANNELS 3 Xrotation Yrotation Zrotation
								End Site
								{
									OFFSET 0.263171 -2.823983 -1.001724
								}
							}
							JOINT CC_Base_L_IndexToe1
							{
								OFFSET -1.455172 -2.683045 0.570290
								CHANNELS 3 Xrotation Yrotation Zrotation
								End Site
								{
									OFFSET 0.326793 -2.793737 -1.065754
								}
							}
							JOINT CC_Base_L_BigToe1
							{
								OFFSET -3.660310 -2.552900 0.092412
								CHANNELS 3 Xrotation Yrotation Zrotation
								End Site
								{
									OFFSET 0.310800 -2.991206 -0.060640
								}
							}
						}
					}
					JOINT CC_Base_L_CalfTwist01
					{
						OFFSET -0.000006 0.000004 -0.000038
						CHANNELS 3 Xrotation Yrotation Zrotation
						JOINT CC_Base_L_CalfTwist02
						{
							OFFSET -0.475341 0.310379 -24.892138
							CHANNELS 3 Xrotation Yrotation Zrotation
							End Site
							{
								OFFSET -0.633384 0.481544 -24.885893
							}
						}
					}
					JOINT CC_Base_L_KneeShareBone
					{
						OFFSET -0.000010 0.000005 -0.000038
						CHANNELS 3 Xrotation Yrotation Zrotation
						End Site
						{
							OFFSET -0.422251 0.318261 -16.599602
						}
					}
				}
				JOINT CC_Base_L_ThighTwist01
				{
					OFFSET -0.000006 0.000002 -0.000031
					CHANNELS 3 Xrotation Yrotation Zrotation
					JOINT CC_Base_L_ThighTwist02
					{
						OFFSET -0.465212 -0.080397 -23.828621
						CHANNELS 3 Xrotation Yrotation Zrotation
						End Site
						{
							OFFSET -0.577665 -0.248224 -23.825005
						}
					}
				}
			}
			JOINT CC_Base_R_Thigh
			{
				OFFSET -9.679712 0.301104 -2.207550
				CHANNELS 3 Xrotation Yrotation Zrotation
				JOINT CC_Base_R_ThighTwist01
				{
					OFFSET 0.000007 -0.000003 -0.000008
					CHANNELS 3 Xrotation Yrotation Zrotation
					JOINT CC_Base_R_ThighTwist02
					{
						OFFSET 0.464272 -0.089817 -23.829117
						CHANNELS 3 Xrotation Yrotation Zrotation
						End Site
						{
							OFFSET 0.584725 -0.252406 -23.825294
						}
					}
				}
				JOINT CC_Base_R_Calf
				{
					OFFSET 0.937987 -0.190387 -40.658482
					CHANNELS 3 Xrotation Yrotation Zrotation
					JOINT CC_Base_R_Foot
					{
						OFFSET 0.950368 0.643215 -42.311081
						CHANNELS 3 Xrotation Yrotation Zrotation
						JOINT CC_Base_R_ToeBase
						{
							OFFSET -1.559783 -13.132576 -2.424223
							CHANNELS 3 Xrotation Yrotation Zrotation
							JOINT CC_Base_R_PinkyToe1
							{
								OFFSET -2.990087 -0.102175 -0.270662
								CHANNELS 3 Xrotation Yrotation Zrotation
								End Site
								{
									OFFSET -0.079772 -2.736538 -1.234487
								}
							}
							JOINT CC_Base_R_BigToe1
							{
								OFFSET 3.670992 -2.549512 0.084144
								CHANNELS 3 Xrotation Yrotation Zrotation
								End Site
								{
									OFFSET -0.319780 -2.985505 -0.058824
								}
							}
							JOINT CC_Base_R_IndexToe1
							{
								OFFSET 1.462413 -2.674656 0.556736
								CHANNELS 3 Xrotation Yrotation Zrotation
								End Site
								{
									OFFSET -0.334732 -2.788952 -1.062384
								}
							}
							JOINT CC_Base_R_MidToe1
							{
								OFFSET -0.182861 -2.360682 0.344119
								CHANNELS 3 Xrotation Yrotation Zrotation
								End Site
								{
									OFFSET -0.271526 -2.819080 -0.999012
								}
							}
							JOINT CC_Base_R_RingToe1
							{
								OFFSET -1.607688 -1.252522 0.222115
								CHANNELS 3 Xrotation Yrotation Zrotation
								End Site
								{
									OFFSET -0.216478 -2.655741 -1.385331
								}
							}
						}
						JOINT CC_Base_R_ToeBaseShareBone
						{
							OFFSET -1.559776 -13.132500 -2.424137
							CHANNELS 3 Xrotation Yrotation Zrotation
							End Site
							{
								OFFSET -0.869085 -13.350641 1.333500
							}
						}
					}
					JOINT CC_Base_R_KneeShareBone
					{
						OFFSET -0.000003 -0.000001 -0.000011
						CHANNELS 3 Xrotation Yrotation Zrotation
						End Site
						{
							OFFSET 0.423583 0.316123 -16.599697
						}
					}
					JOINT CC_Base_R_CalfTwist01
					{
						OFFSET -0.000003 -0.000001 -0.000011
						CHANNELS 3 Xrotation Yrotation Zrotation
						JOINT CC_Base_R_CalfTwist02
						{
							OFFSET 0.474322 0.315302 -24.892122
							CHANNELS 3 Xrotation Yrotation Zrotation
							End Site
							{
								OFFSET 0.638875 0.494206 -24.885532
							}
						}
					}
				}
			}
		}
		JOINT CC_Base_Waist
		{
			OFFSET 0.000123 -1.391190 7.892227
			CHANNELS 3 Xrotation Yrotation Zrotation
			JOINT CC_Base_Spine01
			{
				OFFSET -0.000665 -2.896428 8.000412
				CHANNELS 3 Xrotation Yrotation Zrotation
				JOINT CC_Base_Spine02
				{
					OFFSET -0.000151 3.172371 14.481407
					CHANNELS 3 Xrotation Yrotation Zrotation
					JOINT CC_Base_NeckTwist01
					{
						OFFSET 0.001830 5.037313 26.915466
						CHANNELS 3 Xrotation Yrotation Zrotation
						JOINT CC_Base_NeckTwist02
						{
							OFFSET -0.000429 -0.994779 3.682953
							CHANNELS 3 Xrotation Yrotation Zrotation
							JOINT CC_Base_Head
							{
								OFFSET -0.000365 -1.056073 3.987289
								CHANNELS 3 Xrotation Yrotation Zrotation
								JOINT CC_Base_FacialBone
								{
									OFFSET -0.000076 -0.000019 -0.000015
									CHANNELS 3 Xrotation Yrotation Zrotation
									JOINT CC_Base_JawRoot
									{
										OFFSET 0.000166 -2.577461 1.589859
										CHANNELS 3 Xrotation Yrotation Zrotation
										JOINT CC_Base_Tongue01
										{
											OFFSET -0.000266 -3.515649 -0.902802
											CHANNELS 3 Xrotation Yrotation Zrotation
											JOINT CC_Base_Tongue02
											{
												OFFSET -0.000103 -1.192833 -0.092529
												CHANNELS 3 Xrotation Yrotation Zrotation
												JOINT CC_Base_Tongue03
												{
													OFFSET -0.000133 -1.588274 -0.455170
													CHANNELS 3 Xrotation Yrotation Zrotation
													End Site
													{
														OFFSET -0.000195 0.578345 -1.547684
													}
												}
											}
										}
										JOINT CC_Base_Teeth02
										{
											OFFSET -0.000445 -3.518791 -0.882431
											CHANNELS 3 Xrotation Yrotation Zrotation
											End Site
											{
												OFFSET -0.000062 0.000900 3.628738
											}
										}
									}
									JOINT CC_Base_R_Eye
									{
										OFFSET -3.320127 -8.218504 8.193512
										CHANNELS 3 Xrotation Yrotation Zrotation
										End Site
										{
											OFFSET 0.002065 8.681551 -0.000092
										}
									}
									JOINT CC_Base_L_Eye
									{
										OFFSET 3.318957 -8.219094 8.193741
										CHANNELS 3 Xrotation Yrotation Zrotation
										End Site
										{
											OFFSET 0.002065 8.681551 0.000015
										}
									}
									JOINT CC_Base_UpperJaw
									{
										OFFSET -0.000138 -6.915838 3.044510
										CHANNELS 3 Xrotation Yrotation Zrotation
										JOINT CC_Base_Teeth01
										{
											OFFSET -0.000113 -0.066461 0.210709
											CHANNELS 3 Xrotation Yrotation Zrotation
											End Site
											{
												OFFSET 0.000006 0.000046 0.220947
											}
										}
									}
								}
							}
						}
					}
					JOINT CC_Base_L_Clavicle
					{
						OFFSET 5.625835 3.736514 20.628326
						CHANNELS 3 Xrotation Yrotation Zrotation
						JOINT CC_Base_L_Upperarm
						{
							OFFSET 12.748119 2.616885 -0.026810
							CHANNELS 3 Xrotation Yrotation Zrotation
							JOINT CC_Base_L_Forearm
							{
								OFFSET 30.707462 0.007299 -0.258804
								CHANNELS 3 Xrotation Yrotation Zrotation
								JOINT CC_Base_L_ForearmTwist01
								{
									OFFSET -0.000061 0.000038 0.000046
									CHANNELS 3 Xrotation Yrotation Zrotation
									JOINT CC_Base_L_ForearmTwist02
									{
										OFFSET 12.849483 -0.003518 0.057983
										CHANNELS 3 Xrotation Yrotation Zrotation
										End Site
										{
											OFFSET 12.845856 -0.146425 -0.274261
										}
									}
								}
								JOINT CC_Base_L_ElbowShareBone
								{
									OFFSET -0.000008 -0.000001 -0.000031
									CHANNELS 3 Xrotation Yrotation Zrotation
									End Site
									{
										OFFSET 8.567738 -0.043919 -0.182861
									}
								}
								JOINT CC_Base_L_Hand
								{
									OFFSET 31.208935 0.000525 0.133942
									CHANNELS 3 Xrotation Yrotation Zrotation
									JOINT CC_Base_L_Mid1
									{
										OFFSET 11.379295 -1.876784 -0.235855
										CHANNELS 3 Xrotation Yrotation Zrotation
										JOINT CC_Base_L_Mid2
										{
											OFFSET 4.206909 -0.123435 0.033875
											CHANNELS 3 Xrotation Yrotation Zrotation
											JOINT CC_Base_L_Mid3
											{
												OFFSET 2.707268 -0.095429 0.031494
												CHANNELS 3 Xrotation Yrotation Zrotation
												End Site
												{
													OFFSET 2.699577 -0.042444 -0.223358
												}
											}
										}
									}
									JOINT CC_Base_L_Index1
									{
										OFFSET 11.270035 -4.733048 0.074539
										CHANNELS 3 Xrotation Yrotation Zrotation
										JOINT CC_Base_L_Index2
										{
											OFFSET 3.081078 -0.105606 0.039658
											CHANNELS 3 Xrotation Yrotation Zrotation
											JOINT CC_Base_L_Index3
											{
												OFFSET 2.603844 -0.079981 0.040771
												CHANNELS 3 Xrotation Yrotation Zrotation
												End Site
												{
													OFFSET 2.590714 -0.033555 -0.274155
												}
											}
										}
									}
									JOINT CC_Base_L_Ring1
									{
										OFFSET 11.200226 0.468256 -1.122910
										CHANNELS 3 Xrotation Yrotation Zrotation
										JOINT CC_Base_L_Ring2
										{
											OFFSET 3.548828 -0.120251 0.012604
											CHANNELS 3 Xrotation Yrotation Zrotation
											JOINT CC_Base_L_Ring3
											{
												OFFSET 2.486275 -0.090200 0.002686
												CHANNELS 3 Xrotation Yrotation Zrotation
												End Site
												{
													OFFSET 2.478577 0.023370 -0.214066
												}
											}
										}
									}
									JOINT CC_Base_L_Pinky1
									{
										OFFSET 10.416008 2.486697 -2.113419
										CHANNELS 3 Xrotation Yrotation Zrotation
										JOINT CC_Base_L_Pinky2
										{
											OFFSET 2.772491 -0.086895 -0.000244
											CHANNELS 3 Xrotation Yrotation Zrotation
											JOINT CC_Base_L_Pinky3
											{
												OFFSET 2.170418 -0.104033 -0.002472
												CHANNELS 3 Xrotation Yrotation Zrotation
												End Site
												{
													OFFSET 2.151093 -0.017404 -0.306686
												}
											}
										}
									}
									JOINT CC_Base_L_Thumb1
									{
										OFFSET 5.097328 -5.012833 -1.319916
										CHANNELS 3 Xrotation Yrotation Zrotation
										JOINT CC_Base_L_Thumb2
										{
											OFFSET 2.023773 -1.980936 0.020203
											CHANNELS 3 Xrotation Yrotation Zrotation
											JOINT CC_Base_L_Thumb3
											{
												OFFSET 3.367142 -1.516251 -0.003632
												CHANNELS 3 Xrotation Yrotation Zrotation
												End Site
												{
													OFFSET 3.222420 -1.803511 0.004181
												}
											}
										}
									}
								}
							}
							JOINT CC_Base_L_UpperarmTwist01
							{
								OFFSET -1.000006 -3.000000 2.000092
								CHANNELS 3 Xrotation Yrotation Zrotation
								JOINT CC_Base_L_UpperarmTwist02
								{
									OFFSET 12.626181 0.017348 -0.086411
									CHANNELS 3 Xrotation Yrotation Zrotation
									End Site
									{
										OFFSET 12.614151 -0.116489 -0.545715
									}
								}
							}
						}
					}
					JOINT CC_Base_R_Clavicle
					{
						OFFSET -5.621921 3.738149 20.628403
						CHANNELS 3 Xrotation Yrotation Zrotation
						JOINT CC_Base_R_Upperarm
						{
							OFFSET -12.747458 2.620382 -0.027130
							CHANNELS 3 Xrotation Yrotation Zrotation
							JOINT CC_Base_R_UpperarmTwist01
							{
								OFFSET 1.000004 -3.000002 0.500061
								CHANNELS 3 Xrotation Yrotation Zrotation
								JOINT CC_Base_R_UpperarmTwist02
								{
									OFFSET -12.626461 0.032800 -0.087509
									CHANNELS 3 Xrotation Yrotation Zrotation
									End Site
									{
										OFFSET -12.614147 -0.143803 -0.546738
									}
								}
							}
							JOINT CC_Base_R_Forearm
							{
								OFFSET -30.707649 0.030312 -0.259460
								CHANNELS 3 Xrotation Yrotation Zrotation
								JOINT CC_Base_R_ForearmTwist01
								{
									OFFSET -0.000069 -0.000037 -0.000259
									CHANNELS 3 Xrotation Yrotation Zrotation
									JOINT CC_Base_R_ForearmTwist02
									{
										OFFSET -12.849583 0.005212 0.057632
										CHANNELS 3 Xrotation Yrotation Zrotation
										End Site
										{
											OFFSET -12.845531 -0.178712 -0.274628
										}
									}
								}
								JOINT CC_Base_R_ElbowShareBone
								{
									OFFSET 0.000011 0.000005 -0.000198
									CHANNELS 3 Xrotation Yrotation Zrotation
									End Site
									{
										OFFSET -8.567799 -0.064058 -0.182922
									}
								}
								JOINT CC_Base_R_Hand
								{
									OFFSET -31.209145 0.019975 0.132889
									CHANNELS 3 Xrotation Yrotation Zrotation
									JOINT CC_Base_R_Mid1
									{
										OFFSET -11.380081 -1.865469 -0.234695
										CHANNELS 3 Xrotation Yrotation Zrotation
										JOINT CC_Base_R_Mid2
										{
											OFFSET -4.207092 -0.119065 0.033829
											CHANNELS 3 Xrotation Yrotation Zrotation
											JOINT CC_Base_R_Mid3
											{
												OFFSET -2.707199 -0.092269 0.031372
												CHANNELS 3 Xrotation Yrotation Zrotation
												End Site
												{
													OFFSET -2.699371 -0.048402 -0.222458
												}
											}
										}
									}
									JOINT CC_Base_R_Ring1
									{
										OFFSET -11.199821 0.477916 -1.123932
										CHANNELS 3 Xrotation Yrotation Zrotation
										JOINT CC_Base_R_Ring2
										{
											OFFSET -3.548981 -0.116987 0.012604
											CHANNELS 3 Xrotation Yrotation Zrotation
											JOINT CC_Base_R_Ring3
											{
												OFFSET -2.486282 -0.087294 0.002426
												CHANNELS 3 Xrotation Yrotation Zrotation
												End Site
												{
													OFFSET -2.478539 0.017891 -0.213837
												}
											}
										}
									}
									JOINT CC_Base_R_Thumb1
									{
										OFFSET -5.101601 -5.060779 -1.317978
										CHANNELS 3 Xrotation Yrotation Zrotation
										JOINT CC_Base_R_Thumb2
										{
											OFFSET -2.022972 -1.980966 0.019958
											CHANNELS 3 Xrotation Yrotation Zrotation
											JOINT CC_Base_R_Thumb3
											{
												OFFSET -3.366974 -1.734020 -0.002975
												CHANNELS 3 Xrotation Yrotation Zrotation
												End Site
												{
													OFFSET -3.295723 -1.865891 0.004898
												}
											}
										}
									}
									JOINT CC_Base_R_Index1
									{
										OFFSET -11.272018 -4.721709 0.078278
										CHANNELS 3 Xrotation Yrotation Zrotation
										JOINT CC_Base_R_Index2
										{
											OFFSET -3.081085 -0.102337 0.039734
											CHANNELS 3 Xrotation Yrotation Zrotation
											JOINT CC_Base_R_Index3
											{
												OFFSET -2.603897 -0.076826 0.040741
												CHANNELS 3 Xrotation Yrotation Zrotation
												End Site
												{
													OFFSET -2.590599 -0.039103 -0.274048
												}
											}
										}
									}
									JOINT CC_Base_R_Pinky1
									{
										OFFSET -10.414719 2.497349 -2.116714
										CHANNELS 3 Xrotation Yrotation Zrotation
										JOINT CC_Base_R_Pinky2
										{
											OFFSET -2.772430 -0.083082 -0.000153
											CHANNELS 3 Xrotation Yrotation Zrotation
											JOINT CC_Base_R_Pinky3
											{
												OFFSET -2.170349 -0.100748 -0.002747
												CHANNELS 3 Xrotation Yrotation Zrotation
												End Site
												{
													OFFSET -2.150795 -0.021683 -0.306870
												}
											}
										}
									}
								}
							}
						}
					}
					JOINT CC_Base_R_RibsTwist
					{
						OFFSET -10.856568 -8.884927 8.713364
						CHANNELS 3 Xrotation Yrotation Zrotation
						JOINT CC_Base_R_Breast
						{
							OFFSET 0.000867 -3.000035 -0.000153
							CHANNELS 3 Xrotation Yrotation Zrotation
							End Site
							{
								OFFSET -0.000044 -3.000034 -0.000320
							}
						}
					}
					JOINT CC_Base_L_RibsTwist
					{
						OFFSET 10.835660 -8.887159 8.684448
						CHANNELS 3 Xrotation Yrotation Zrotation
						JOINT CC_Base_L_Breast
						{
							OFFSET -0.001493 -3.000003 -0.000214
							CHANNELS 3 Xrotation Yrotation Zrotation
							End Site
							{
								OFFSET -0.000053 -3.000003 -0.000320
							}
						}
					}
				}
			}
		}
	}
}
MOTION
Frames: 2
Frame Time: 0.016667
0.000000 0.000000 0.000000 -0.000000 0.000000 2.731224 -8.527673 -0.275471 0.000056 0.000005 -0.000000 0.000000 1.526340 -0.064110 7.245492 18.588052 1.888872 0.109603 -11.614085 -2.375653 -1.385382 -0.000013 -0.000002 0.000002 -2.351890 -0.188497 -0.218626 0.000008 -0.000001 0.000001 -0.000003 -0.000004 -0.000001 0.000011 -0.000003 -0.000001 0.000014 0.000000 -0.000001 -0.000000 0.000000 -0.000006 -0.013529 0.010397 -0.534289 -0.010715 0.008213 -0.422384 -9.322969 -0.668182 -0.526795 -0.089743 -0.035115 -3.638227 0.086949 0.040680 3.638181 -16.877080 4.868897 -3.168100 -0.033360 0.013936 1.352607 0.033041 -0.014720 -1.352598 63.378678 -0.641739 1.709763 -7.232489 -2.549645 -0.539227 -0.762852 0.807058 1.045483 -0.000020 -0.000002 -0.000000 -0.000013 0.000000 -0.000002 -0.000018 -0.000003 -0.000000 -0.000019 0.000000 -0.000000 -0.000017 -0.000003 -0.000001 -0.000014 0.000001 -0.000003 -31.684906 -0.215704 -0.881452 0.009095 0.006927 -0.356228 0.039067 0.029406 -1.506542 3.067978 -1.114145 -1.115991 6.147947 1.308951 -1.596452 6.147893 1.308946 -1.596463 -2.875204 0.571862 0.310056 -2.875306 0.571855 0.310056 -5.595084 -3.707231 -0.223501 0.000001 0.000014 -0.000015 0.000036 -0.001156 0.001155 -0.000005 -0.000010 0.000001 -0.000007 0.000014 -0.000008 0.000004 -0.000002 0.000000 -0.000006 -0.000003 -0.000007 -0.011332 -0.002286 0.011349 -0.011326 -0.002286 0.011344 0.000004 -0.001160 0.001157 0.000014 -0.000001 -0.000006 2.152331 18.619198 -8.290560 42.342839 35.457998 -40.936308 -0.285921 0.002299 -13.493373 -0.004074 0.000051 0.000089 -12.003100 0.109073 0.268675 0.165698 0.029354 8.096049 -23.770424 -13.273142 -2.075957 -0.000032 20.298330 -0.000030 -0.000160 33.365081 -0.000127 0.000772 13.812660 -0.000235 -3.529880 10.150920 5.067807 0.000429 29.408243 -0.000694 -0.000634 12.997529 -0.000053 -0.000019 25.838069 -0.000038 -0.000214 38.974238 -0.000126 -0.000094 21.120408 -0.000056 -0.000093 30.323998 0.000064 -0.000180 31.027907 -0.000064 -0.000040 19.996093 -0.000081 -0.504279 15.841958 17.021808 -0.472137 -1.625305 6.918530 0.885445 1.111851 4.463560 -14.672672 0.053229 0.645130 14.671241 -0.214843 -0.610592 2.814712 -18.242500 10.730413 40.015237 -52.768416 33.886816 -11.311139 -0.079908 -0.499760 11.310049 0.176337 0.474369 -0.513265 -0.005414 10.522348 0.138173 0.001923 0.002939 -4.838521 -0.062862 -0.106150 0.414111 -0.078581 -6.310568 -8.907557 5.886178 -1.662430 -0.000039 -20.298216 0.000003 -0.000196 -33.364573 -0.000054 -0.000043 -13.812774 0.000046 -0.000092 -25.838187 0.000050 -0.000240 -38.974057 -0.000169 -0.000080 -21.120328 -0.000020 -0.504392 -15.841835 -17.022995 -0.453592 1.625740 -6.916448 0.888305 -1.116359 -4.464538 -3.529943 -10.151638 -5.067710 0.000355 -29.406358 0.000275 -0.000547 -12.998454 0.000013 -0.000058 -30.324582 0.000009 -0.000248 -31.026254 0.000259 -0.000089 -19.996987 0.000015 0.000016 0.000002 -0.000002 0.000000 -0.000000 0.000000 0.000011 0.000006 -0.000002 0.000000 -0.000000 0.000000 
0.000121 -0.034134 0.000000 -0.000000 0.000000 2.735308 -8.524706 -0.270719 -0.000058 0.000001 0.000000 -0.000000 1.555531 -0.067297 7.239861 18.564224 1.889021 0.110525 -11.622334 -2.372340 -1.385357 -0.000005 -0.000001 -0.000006 -2.350803 -0.188168 -0.218153 -0.000020 0.000002 -0.000001 -0.000009 0.000001 -0.000003 0.000004 -0.000003 0.000000 -0.000001 0.000001 -0.000002 -0.000008 -0.000000 -0.000003 -0.013547 0.010405 -0.534641 -0.010665 0.008170 -0.420153 -9.311075 -0.668561 -0.527210 -0.089698 -0.035090 -3.635745 0.086896 0.040650 3.635696 -16.916492 4.864636 -3.170714 -0.033386 0.013945 1.353492 0.033056 -0.014732 -1.353483 63.309399 -0.644478 1.708461 -7.235369 -2.556638 -0.527946 -0.760339 0.808474 1.047569 -0.000011 -0.000002 0.000001 -0.000005 0.000001 0.000002 -0.000021 -0.000003 0.000001 -0.000007 0.000001 0.000000 -0.000017 -0.000004 -0.000000 -0.000007 0.000001 -0.000001 -31.650291 -0.214450 -0.879772 0.009091 0.006921 -0.355887 0.039137 0.029454 -1.508988 3.068249 -1.115134 -1.115796 6.148446 1.305148 -1.598765 6.148426 1.305438 -1.598586 -2.875479 0.570688 0.310265 -2.875565 0.570681 0.310263 -5.597328 -3.706002 -0.220784 0.000000 0.000000 -0.000015 0.000002 -0.001151 0.001155 0.000001 0.000021 -0.000015 0.000027 -0.000018 0.000014 0.000009 -0.000011 0.000003 0.000020 0.000011 -0.000015 -0.011332 -0.002286 0.011349 -0.011325 -0.002287 0.011344 0.000005 -0.001152 0.001148 0.000018 -0.000001 0.000001 2.152963 18.619323 -8.292605 42.316779 35.440479 -40.938880 -0.285926 0.002302 -13.501153 -0.004163 0.000052 0.000099 -12.003880 0.109080 0.268680 0.165642 0.029337 8.100720 -23.772654 -13.272465 -2.079016 -0.000038 20.298055 -0.000012 -0.000142 33.365652 -0.000124 0.000770 13.812308 -0.000260 -3.529903 10.151802 5.067857 0.000369 29.406498 -0.000691 -0.000586 12.998453 -0.000067 -0.000062 25.837730 -0.000081 -0.000178 38.975228 -0.000131 -0.000128 21.119787 -0.000037 -0.000071 30.324035 0.000048 -0.000171 31.027804 -0.000062 -0.000009 19.996140 -0.000109 -0.504306 15.841900 17.022672 -0.472170 -1.625262 6.917191 0.885478 1.111885 4.464105 -14.663301 0.053252 0.644712 14.661868 -0.214651 -0.610217 2.813766 -18.241163 10.727732 40.020701 -52.776482 33.871595 -11.315912 -0.079916 -0.499975 11.314835 0.176434 0.474563 -0.513230 -0.005408 10.521938 0.138173 0.001925 0.002953 -4.836354 -0.062837 -0.106105 0.414089 -0.078575 -6.310314 -8.903012 5.883907 -1.664867 -0.000032 -20.298252 0.000050 -0.000212 -33.364876 -0.000061 -0.000061 -13.812507 0.000028 -0.000088 -25.838438 0.000061 -0.000275 -38.973104 -0.000153 -0.000079 -21.120951 -0.000028 -0.504339 -15.841944 -17.021846 -0.453534 1.625750 -6.918446 0.888270 -1.116334 -4.463685 -3.529886 -10.151129 -5.067769 0.000394 -29.407591 0.000268 -0.000545 -12.997761 0.000062 -0.000125 -30.323304 0.000061 -0.000082 -31.029864 0.000267 -0.000207 -19.994805 0.000033 0.000016 0.000003 -0.000001 -0.000000 -0.000000 -0.000000 0.000012 0.000006 -0.000001 0.000000 -0.000000 0.000000 
